<svg width="32" height="32" viewBox="0 0 32 32" fill="none" xmlns="http://www.w3.org/2000/svg">
  <rect width="32" height="32" rx="4" fill="#000000"/>
  <path d="M8 10C8 8.89543 8.89543 8 10 8H18C19.1046 8 20 8.89543 20 10V22C20 23.1046 19.1046 24 18 24H10C8.89543 24 8 23.1046 8 22V10Z" fill="#FFFFFF"/>
  <path d="M21.5528 11.1056C21.214 10.9648 20.8 11.2096 20.8 11.5792V20.4208C20.8 20.7904 21.214 21.0352 21.5528 20.8944L25.1528 19.4736C25.6656 19.2672 25.6656 18.7328 25.1528 18.5264L21.5528 11.1056Z" fill="#FFFFFF"/>
</svg>
